<mxfile host="app.diagrams.net" modified="2023-05-29T17:16:11.076Z" agent="Mozilla/5.0 (Windows NT 10.0; Win64; x64) AppleWebKit/537.36 (KHTML, like Gecko) Chrome/113.0.0.0 Safari/537.36" etag="SJ1kxd7XqA1DVJzUjC0X" version="21.3.3" type="device">
  <diagram name="Page-1" id="Z57ijNwS42b0OA86Qo14">
    <mxGraphModel dx="2736" dy="2153" grid="1" gridSize="10" guides="1" tooltips="1" connect="1" arrows="1" fold="1" page="1" pageScale="1" pageWidth="827" pageHeight="1169" math="0" shadow="0">
      <root>
        <mxCell id="0" />
        <mxCell id="1" parent="0" />
        <mxCell id="sw96YTOBPEUKwSquJH4s-1" value="" style="ellipse;html=1;shape=startState;fillColor=#000000;strokeColor=#ff0000;" vertex="1" parent="1">
          <mxGeometry x="-47" y="100" width="30" height="30" as="geometry" />
        </mxCell>
        <mxCell id="sw96YTOBPEUKwSquJH4s-2" value="" style="edgeStyle=orthogonalEdgeStyle;html=1;verticalAlign=bottom;endArrow=open;endSize=8;strokeColor=#ff0000;rounded=0;entryX=0.5;entryY=0;entryDx=0;entryDy=0;" edge="1" parent="1" source="sw96YTOBPEUKwSquJH4s-1" target="sw96YTOBPEUKwSquJH4s-80">
          <mxGeometry relative="1" as="geometry">
            <mxPoint x="60" y="100" as="targetPoint" />
          </mxGeometry>
        </mxCell>
        <mxCell id="sw96YTOBPEUKwSquJH4s-3" value="" style="rhombus;whiteSpace=wrap;html=1;" vertex="1" parent="1">
          <mxGeometry x="58" y="341" width="63" height="55" as="geometry" />
        </mxCell>
        <mxCell id="sw96YTOBPEUKwSquJH4s-4" value="" style="endArrow=classic;html=1;rounded=0;" edge="1" parent="1">
          <mxGeometry width="50" height="50" relative="1" as="geometry">
            <mxPoint x="122" y="369" as="sourcePoint" />
            <mxPoint x="142" y="369" as="targetPoint" />
          </mxGeometry>
        </mxCell>
        <mxCell id="sw96YTOBPEUKwSquJH4s-5" value="" style="endArrow=none;html=1;rounded=0;" edge="1" parent="1" source="sw96YTOBPEUKwSquJH4s-87">
          <mxGeometry width="50" height="50" relative="1" as="geometry">
            <mxPoint x="152" y="543" as="sourcePoint" />
            <mxPoint x="151.5" y="163" as="targetPoint" />
            <Array as="points" />
          </mxGeometry>
        </mxCell>
        <mxCell id="sw96YTOBPEUKwSquJH4s-9" value="" style="endArrow=classic;html=1;rounded=0;" edge="1" parent="1">
          <mxGeometry width="50" height="50" relative="1" as="geometry">
            <mxPoint x="152" y="160" as="sourcePoint" />
            <mxPoint x="240" y="160" as="targetPoint" />
          </mxGeometry>
        </mxCell>
        <mxCell id="sw96YTOBPEUKwSquJH4s-10" value="" style="endArrow=classic;html=1;rounded=0;" edge="1" parent="1">
          <mxGeometry width="50" height="50" relative="1" as="geometry">
            <mxPoint x="329" y="160" as="sourcePoint" />
            <mxPoint x="380" y="160" as="targetPoint" />
          </mxGeometry>
        </mxCell>
        <mxCell id="sw96YTOBPEUKwSquJH4s-11" value="" style="endArrow=none;html=1;rounded=0;" edge="1" parent="1" source="sw96YTOBPEUKwSquJH4s-113">
          <mxGeometry width="50" height="50" relative="1" as="geometry">
            <mxPoint x="390" y="330" as="sourcePoint" />
            <mxPoint x="390" y="-2" as="targetPoint" />
          </mxGeometry>
        </mxCell>
        <mxCell id="sw96YTOBPEUKwSquJH4s-12" value="" style="endArrow=classic;html=1;rounded=0;" edge="1" parent="1">
          <mxGeometry width="50" height="50" relative="1" as="geometry">
            <mxPoint x="391" y="107" as="sourcePoint" />
            <mxPoint x="452" y="107" as="targetPoint" />
          </mxGeometry>
        </mxCell>
        <mxCell id="sw96YTOBPEUKwSquJH4s-13" value="" style="endArrow=classic;html=1;rounded=0;" edge="1" parent="1">
          <mxGeometry width="50" height="50" relative="1" as="geometry">
            <mxPoint x="391" y="53" as="sourcePoint" />
            <mxPoint x="452" y="53" as="targetPoint" />
            <Array as="points" />
          </mxGeometry>
        </mxCell>
        <mxCell id="sw96YTOBPEUKwSquJH4s-14" value="" style="endArrow=classic;html=1;rounded=0;" edge="1" parent="1">
          <mxGeometry width="50" height="50" relative="1" as="geometry">
            <mxPoint x="392" y="159" as="sourcePoint" />
            <mxPoint x="453" y="159" as="targetPoint" />
          </mxGeometry>
        </mxCell>
        <mxCell id="sw96YTOBPEUKwSquJH4s-15" value="" style="endArrow=classic;html=1;rounded=0;" edge="1" parent="1">
          <mxGeometry width="50" height="50" relative="1" as="geometry">
            <mxPoint x="391" y="271" as="sourcePoint" />
            <mxPoint x="452" y="271" as="targetPoint" />
          </mxGeometry>
        </mxCell>
        <mxCell id="sw96YTOBPEUKwSquJH4s-16" value="&lt;font style=&quot;font-size: 14px;&quot;&gt;Manage Job Posting&lt;/font&gt;" style="rounded=0;whiteSpace=wrap;html=1;" vertex="1" parent="1">
          <mxGeometry x="447" y="33" width="161" height="40" as="geometry" />
        </mxCell>
        <mxCell id="sw96YTOBPEUKwSquJH4s-18" value="&lt;font style=&quot;font-size: 14px;&quot;&gt;Manage Performance Review&lt;/font&gt;" style="rounded=0;whiteSpace=wrap;html=1;" vertex="1" parent="1">
          <mxGeometry x="450" y="86" width="161" height="40" as="geometry" />
        </mxCell>
        <mxCell id="sw96YTOBPEUKwSquJH4s-19" value="&lt;font style=&quot;font-size: 14px;&quot;&gt;Integration Management&lt;/font&gt;" style="rounded=0;whiteSpace=wrap;html=1;" vertex="1" parent="1">
          <mxGeometry x="450" y="251" width="161" height="40" as="geometry" />
        </mxCell>
        <mxCell id="sw96YTOBPEUKwSquJH4s-20" value="&lt;font style=&quot;font-size: 14px;&quot;&gt;Manage Training Programme&lt;/font&gt;" style="rounded=0;whiteSpace=wrap;html=1;" vertex="1" parent="1">
          <mxGeometry x="450" y="140" width="161" height="40" as="geometry" />
        </mxCell>
        <mxCell id="sw96YTOBPEUKwSquJH4s-21" value="&lt;font style=&quot;font-size: 14px;&quot;&gt;Security Management&amp;nbsp;&lt;/font&gt;" style="rounded=0;whiteSpace=wrap;html=1;" vertex="1" parent="1">
          <mxGeometry x="450" y="306" width="161" height="40" as="geometry" />
        </mxCell>
        <mxCell id="sw96YTOBPEUKwSquJH4s-54" value="" style="endArrow=classic;html=1;rounded=0;" edge="1" parent="1">
          <mxGeometry width="50" height="50" relative="1" as="geometry">
            <mxPoint x="1070" y="380.57000000000005" as="sourcePoint" />
            <mxPoint x="1160" y="380.57000000000005" as="targetPoint" />
            <Array as="points">
              <mxPoint x="1110" y="381" />
            </Array>
          </mxGeometry>
        </mxCell>
        <mxCell id="sw96YTOBPEUKwSquJH4s-55" value="" style="ellipse;html=1;shape=endState;fillColor=#000000;strokeColor=#ff0000;" vertex="1" parent="1">
          <mxGeometry x="1161" y="352" width="53" height="52" as="geometry" />
        </mxCell>
        <mxCell id="sw96YTOBPEUKwSquJH4s-56" value="" style="endArrow=classic;html=1;rounded=0;" edge="1" parent="1">
          <mxGeometry width="50" height="50" relative="1" as="geometry">
            <mxPoint x="610" y="325.86" as="sourcePoint" />
            <mxPoint x="1070" y="326" as="targetPoint" />
          </mxGeometry>
        </mxCell>
        <mxCell id="sw96YTOBPEUKwSquJH4s-69" value="&lt;font style=&quot;font-size: 14px;&quot;&gt;Manage Leave Request&lt;/font&gt;" style="rounded=0;whiteSpace=wrap;html=1;" vertex="1" parent="1">
          <mxGeometry x="450" y="196" width="161" height="40" as="geometry" />
        </mxCell>
        <mxCell id="sw96YTOBPEUKwSquJH4s-70" value="" style="endArrow=classic;html=1;rounded=0;" edge="1" parent="1">
          <mxGeometry width="50" height="50" relative="1" as="geometry">
            <mxPoint x="390" y="-1" as="sourcePoint" />
            <mxPoint x="451" y="-1" as="targetPoint" />
            <Array as="points" />
          </mxGeometry>
        </mxCell>
        <mxCell id="sw96YTOBPEUKwSquJH4s-71" value="" style="edgeStyle=orthogonalEdgeStyle;rounded=0;orthogonalLoop=1;jettySize=auto;html=1;" edge="1" parent="1" source="sw96YTOBPEUKwSquJH4s-72" target="sw96YTOBPEUKwSquJH4s-3">
          <mxGeometry relative="1" as="geometry" />
        </mxCell>
        <mxCell id="sw96YTOBPEUKwSquJH4s-72" value="&lt;font style=&quot;font-size: 14px;&quot;&gt;Authenticated&lt;/font&gt;" style="rounded=1;whiteSpace=wrap;html=1;" vertex="1" parent="1">
          <mxGeometry x="45" y="240" width="90" height="30" as="geometry" />
        </mxCell>
        <mxCell id="sw96YTOBPEUKwSquJH4s-73" value="" style="edgeStyle=orthogonalEdgeStyle;rounded=0;orthogonalLoop=1;jettySize=auto;html=1;" edge="1" parent="1">
          <mxGeometry relative="1" as="geometry">
            <mxPoint x="-150" y="240" as="sourcePoint" />
            <mxPoint x="-80" y="195" as="targetPoint" />
            <Array as="points">
              <mxPoint x="-150" y="195" />
            </Array>
          </mxGeometry>
        </mxCell>
        <mxCell id="sw96YTOBPEUKwSquJH4s-74" value="&lt;font style=&quot;font-size: 14px;&quot;&gt;Login Failed&lt;/font&gt;" style="rounded=1;whiteSpace=wrap;html=1;" vertex="1" parent="1">
          <mxGeometry x="-193" y="240" width="90" height="30" as="geometry" />
        </mxCell>
        <mxCell id="sw96YTOBPEUKwSquJH4s-75" value="" style="edgeStyle=orthogonalEdgeStyle;rounded=0;orthogonalLoop=1;jettySize=auto;html=1;" edge="1" parent="1" source="sw96YTOBPEUKwSquJH4s-77" target="sw96YTOBPEUKwSquJH4s-72">
          <mxGeometry relative="1" as="geometry" />
        </mxCell>
        <mxCell id="sw96YTOBPEUKwSquJH4s-76" value="" style="edgeStyle=orthogonalEdgeStyle;rounded=0;orthogonalLoop=1;jettySize=auto;html=1;" edge="1" parent="1" source="sw96YTOBPEUKwSquJH4s-77" target="sw96YTOBPEUKwSquJH4s-74">
          <mxGeometry relative="1" as="geometry" />
        </mxCell>
        <mxCell id="sw96YTOBPEUKwSquJH4s-77" value="" style="rhombus;whiteSpace=wrap;html=1;" vertex="1" parent="1">
          <mxGeometry x="-52" y="235" width="40" height="40" as="geometry" />
        </mxCell>
        <mxCell id="sw96YTOBPEUKwSquJH4s-78" value="" style="edgeStyle=orthogonalEdgeStyle;rounded=0;orthogonalLoop=1;jettySize=auto;html=1;" edge="1" parent="1" source="sw96YTOBPEUKwSquJH4s-80" target="sw96YTOBPEUKwSquJH4s-77">
          <mxGeometry relative="1" as="geometry" />
        </mxCell>
        <mxCell id="sw96YTOBPEUKwSquJH4s-80" value="&lt;font style=&quot;font-size: 14px;&quot;&gt;Login&lt;/font&gt;" style="rounded=1;whiteSpace=wrap;html=1;" vertex="1" parent="1">
          <mxGeometry x="-77" y="180" width="90" height="30" as="geometry" />
        </mxCell>
        <mxCell id="sw96YTOBPEUKwSquJH4s-83" value="&lt;font style=&quot;font-size: 14px;&quot;&gt;Start&lt;/font&gt;" style="text;html=1;align=center;verticalAlign=middle;resizable=0;points=[];autosize=1;strokeColor=none;fillColor=none;" vertex="1" parent="1">
          <mxGeometry x="-97" y="100" width="50" height="30" as="geometry" />
        </mxCell>
        <mxCell id="sw96YTOBPEUKwSquJH4s-84" value="Valid" style="text;html=1;align=center;verticalAlign=middle;resizable=0;points=[];autosize=1;strokeColor=none;fillColor=none;" vertex="1" parent="1">
          <mxGeometry x="-13" y="253" width="50" height="30" as="geometry" />
        </mxCell>
        <mxCell id="sw96YTOBPEUKwSquJH4s-85" value="Wrong Info" style="text;html=1;align=center;verticalAlign=middle;resizable=0;points=[];autosize=1;strokeColor=none;fillColor=none;" vertex="1" parent="1">
          <mxGeometry x="-112" y="258" width="80" height="30" as="geometry" />
        </mxCell>
        <mxCell id="sw96YTOBPEUKwSquJH4s-88" value="&lt;font style=&quot;font-size: 14px;&quot;&gt;Admin&lt;/font&gt;" style="rounded=1;whiteSpace=wrap;html=1;" vertex="1" parent="1">
          <mxGeometry x="240" y="145" width="90" height="30" as="geometry" />
        </mxCell>
        <mxCell id="sw96YTOBPEUKwSquJH4s-89" value="Administrator" style="text;html=1;align=center;verticalAlign=middle;resizable=0;points=[];autosize=1;strokeColor=none;fillColor=none;" vertex="1" parent="1">
          <mxGeometry x="150" y="133" width="90" height="30" as="geometry" />
        </mxCell>
        <mxCell id="sw96YTOBPEUKwSquJH4s-90" value="" style="endArrow=classic;html=1;rounded=0;" edge="1" parent="1">
          <mxGeometry width="50" height="50" relative="1" as="geometry">
            <mxPoint x="391" y="216" as="sourcePoint" />
            <mxPoint x="452" y="216" as="targetPoint" />
          </mxGeometry>
        </mxCell>
        <mxCell id="sw96YTOBPEUKwSquJH4s-91" value="" style="endArrow=classic;html=1;rounded=0;" edge="1" parent="1">
          <mxGeometry width="50" height="50" relative="1" as="geometry">
            <mxPoint x="390" y="327" as="sourcePoint" />
            <mxPoint x="451" y="327" as="targetPoint" />
          </mxGeometry>
        </mxCell>
        <mxCell id="sw96YTOBPEUKwSquJH4s-261" value="" style="edgeStyle=orthogonalEdgeStyle;rounded=0;orthogonalLoop=1;jettySize=auto;html=1;" edge="1" parent="1" source="sw96YTOBPEUKwSquJH4s-92" target="sw96YTOBPEUKwSquJH4s-259">
          <mxGeometry relative="1" as="geometry" />
        </mxCell>
        <mxCell id="sw96YTOBPEUKwSquJH4s-92" value="&lt;font style=&quot;font-size: 14px;&quot;&gt;Non- Administrator&lt;/font&gt;" style="rounded=1;whiteSpace=wrap;html=1;" vertex="1" parent="1">
          <mxGeometry x="231" y="520" width="100" height="50" as="geometry" />
        </mxCell>
        <mxCell id="sw96YTOBPEUKwSquJH4s-106" value="" style="endArrow=classic;html=1;rounded=0;" edge="1" parent="1">
          <mxGeometry width="50" height="50" relative="1" as="geometry">
            <mxPoint x="611" y="270.86" as="sourcePoint" />
            <mxPoint x="1070" y="271" as="targetPoint" />
          </mxGeometry>
        </mxCell>
        <mxCell id="sw96YTOBPEUKwSquJH4s-107" value="" style="endArrow=classic;html=1;rounded=0;" edge="1" parent="1">
          <mxGeometry width="50" height="50" relative="1" as="geometry">
            <mxPoint x="611" y="159.49" as="sourcePoint" />
            <mxPoint x="1070" y="159" as="targetPoint" />
          </mxGeometry>
        </mxCell>
        <mxCell id="sw96YTOBPEUKwSquJH4s-108" value="" style="endArrow=classic;html=1;rounded=0;" edge="1" parent="1">
          <mxGeometry width="50" height="50" relative="1" as="geometry">
            <mxPoint x="611" y="215.86" as="sourcePoint" />
            <mxPoint x="1070" y="216" as="targetPoint" />
          </mxGeometry>
        </mxCell>
        <mxCell id="sw96YTOBPEUKwSquJH4s-109" value="" style="endArrow=classic;html=1;rounded=0;" edge="1" parent="1">
          <mxGeometry width="50" height="50" relative="1" as="geometry">
            <mxPoint x="611" y="105.86000000000001" as="sourcePoint" />
            <mxPoint x="1070" y="106" as="targetPoint" />
          </mxGeometry>
        </mxCell>
        <mxCell id="sw96YTOBPEUKwSquJH4s-110" value="" style="endArrow=classic;html=1;rounded=0;" edge="1" parent="1">
          <mxGeometry width="50" height="50" relative="1" as="geometry">
            <mxPoint x="611" y="54.860000000000014" as="sourcePoint" />
            <mxPoint x="1070" y="55" as="targetPoint" />
          </mxGeometry>
        </mxCell>
        <mxCell id="sw96YTOBPEUKwSquJH4s-111" value="" style="endArrow=classic;html=1;rounded=0;" edge="1" parent="1">
          <mxGeometry width="50" height="50" relative="1" as="geometry">
            <mxPoint x="611" y="-1.1399999999999864" as="sourcePoint" />
            <mxPoint x="1070" y="-1" as="targetPoint" />
          </mxGeometry>
        </mxCell>
        <mxCell id="sw96YTOBPEUKwSquJH4s-112" value="" style="endArrow=none;html=1;rounded=0;" edge="1" parent="1" target="sw96YTOBPEUKwSquJH4s-113">
          <mxGeometry width="50" height="50" relative="1" as="geometry">
            <mxPoint x="390" y="330" as="sourcePoint" />
            <mxPoint x="390" y="-2" as="targetPoint" />
          </mxGeometry>
        </mxCell>
        <mxCell id="sw96YTOBPEUKwSquJH4s-113" value="" style="ellipse;whiteSpace=wrap;html=1;aspect=fixed;" vertex="1" parent="1">
          <mxGeometry x="379" y="150" width="20" height="20" as="geometry" />
        </mxCell>
        <mxCell id="sw96YTOBPEUKwSquJH4s-114" value="" style="endArrow=none;html=1;rounded=0;" edge="1" parent="1">
          <mxGeometry width="50" height="50" relative="1" as="geometry">
            <mxPoint x="1068" y="660" as="sourcePoint" />
            <mxPoint x="1068" as="targetPoint" />
          </mxGeometry>
        </mxCell>
        <mxCell id="sw96YTOBPEUKwSquJH4s-117" value="&lt;font style=&quot;font-size: 14px;&quot;&gt;Manage Employees&lt;/font&gt;" style="rounded=0;whiteSpace=wrap;html=1;" vertex="1" parent="1">
          <mxGeometry x="447" y="-20" width="161" height="40" as="geometry" />
        </mxCell>
        <mxCell id="sw96YTOBPEUKwSquJH4s-236" value="" style="endArrow=classic;html=1;rounded=0;" edge="1" parent="1">
          <mxGeometry width="50" height="50" relative="1" as="geometry">
            <mxPoint x="460" y="1050" as="sourcePoint" />
            <mxPoint x="511" y="1050" as="targetPoint" />
          </mxGeometry>
        </mxCell>
        <mxCell id="sw96YTOBPEUKwSquJH4s-237" value="" style="endArrow=none;html=1;rounded=0;" edge="1" parent="1" source="sw96YTOBPEUKwSquJH4s-259">
          <mxGeometry width="50" height="50" relative="1" as="geometry">
            <mxPoint x="390" y="715" as="sourcePoint" />
            <mxPoint x="390" y="435" as="targetPoint" />
          </mxGeometry>
        </mxCell>
        <mxCell id="sw96YTOBPEUKwSquJH4s-238" value="" style="endArrow=classic;html=1;rounded=0;" edge="1" parent="1">
          <mxGeometry width="50" height="50" relative="1" as="geometry">
            <mxPoint x="391" y="492" as="sourcePoint" />
            <mxPoint x="452" y="492" as="targetPoint" />
          </mxGeometry>
        </mxCell>
        <mxCell id="sw96YTOBPEUKwSquJH4s-239" value="" style="endArrow=classic;html=1;rounded=0;" edge="1" parent="1">
          <mxGeometry width="50" height="50" relative="1" as="geometry">
            <mxPoint x="391" y="438" as="sourcePoint" />
            <mxPoint x="452" y="438" as="targetPoint" />
            <Array as="points" />
          </mxGeometry>
        </mxCell>
        <mxCell id="sw96YTOBPEUKwSquJH4s-240" value="" style="endArrow=classic;html=1;rounded=0;" edge="1" parent="1">
          <mxGeometry width="50" height="50" relative="1" as="geometry">
            <mxPoint x="392" y="544" as="sourcePoint" />
            <mxPoint x="453" y="544" as="targetPoint" />
          </mxGeometry>
        </mxCell>
        <mxCell id="sw96YTOBPEUKwSquJH4s-241" value="" style="endArrow=classic;html=1;rounded=0;" edge="1" parent="1">
          <mxGeometry width="50" height="50" relative="1" as="geometry">
            <mxPoint x="391" y="656" as="sourcePoint" />
            <mxPoint x="452" y="656" as="targetPoint" />
          </mxGeometry>
        </mxCell>
        <mxCell id="sw96YTOBPEUKwSquJH4s-242" value="&lt;font style=&quot;font-size: 14px;&quot;&gt;Leave Request&lt;/font&gt;" style="rounded=0;whiteSpace=wrap;html=1;" vertex="1" parent="1">
          <mxGeometry x="447" y="635" width="161" height="40" as="geometry" />
        </mxCell>
        <mxCell id="sw96YTOBPEUKwSquJH4s-243" value="&lt;font style=&quot;font-size: 14px;&quot;&gt;Access Payslip&amp;nbsp;&lt;/font&gt;" style="rounded=0;whiteSpace=wrap;html=1;" vertex="1" parent="1">
          <mxGeometry x="450" y="471" width="161" height="40" as="geometry" />
        </mxCell>
        <mxCell id="sw96YTOBPEUKwSquJH4s-245" value="&lt;font style=&quot;font-size: 14px;&quot;&gt;View Job posting&lt;/font&gt;" style="rounded=0;whiteSpace=wrap;html=1;" vertex="1" parent="1">
          <mxGeometry x="450" y="525" width="161" height="40" as="geometry" />
        </mxCell>
        <mxCell id="sw96YTOBPEUKwSquJH4s-248" value="&lt;font style=&quot;font-size: 14px;&quot;&gt;Enroll In Trainig Programme&lt;/font&gt;" style="rounded=0;whiteSpace=wrap;html=1;" vertex="1" parent="1">
          <mxGeometry x="450" y="581" width="161" height="40" as="geometry" />
        </mxCell>
        <mxCell id="sw96YTOBPEUKwSquJH4s-250" value="" style="endArrow=classic;html=1;rounded=0;" edge="1" parent="1">
          <mxGeometry width="50" height="50" relative="1" as="geometry">
            <mxPoint x="391" y="601" as="sourcePoint" />
            <mxPoint x="452" y="601" as="targetPoint" />
          </mxGeometry>
        </mxCell>
        <mxCell id="sw96YTOBPEUKwSquJH4s-252" value="" style="endArrow=classic;html=1;rounded=0;" edge="1" parent="1">
          <mxGeometry width="50" height="50" relative="1" as="geometry">
            <mxPoint x="611" y="655.8600000000001" as="sourcePoint" />
            <mxPoint x="1070" y="656" as="targetPoint" />
          </mxGeometry>
        </mxCell>
        <mxCell id="sw96YTOBPEUKwSquJH4s-253" value="" style="endArrow=classic;html=1;rounded=0;" edge="1" parent="1">
          <mxGeometry width="50" height="50" relative="1" as="geometry">
            <mxPoint x="611" y="544.49" as="sourcePoint" />
            <mxPoint x="1070" y="544" as="targetPoint" />
          </mxGeometry>
        </mxCell>
        <mxCell id="sw96YTOBPEUKwSquJH4s-254" value="" style="endArrow=classic;html=1;rounded=0;" edge="1" parent="1">
          <mxGeometry width="50" height="50" relative="1" as="geometry">
            <mxPoint x="611" y="600.8600000000001" as="sourcePoint" />
            <mxPoint x="1070" y="601" as="targetPoint" />
          </mxGeometry>
        </mxCell>
        <mxCell id="sw96YTOBPEUKwSquJH4s-255" value="" style="endArrow=classic;html=1;rounded=0;" edge="1" parent="1">
          <mxGeometry width="50" height="50" relative="1" as="geometry">
            <mxPoint x="611" y="490.8600000000001" as="sourcePoint" />
            <mxPoint x="1070" y="491" as="targetPoint" />
          </mxGeometry>
        </mxCell>
        <mxCell id="sw96YTOBPEUKwSquJH4s-256" value="" style="endArrow=classic;html=1;rounded=0;" edge="1" parent="1">
          <mxGeometry width="50" height="50" relative="1" as="geometry">
            <mxPoint x="611" y="439.8600000000001" as="sourcePoint" />
            <mxPoint x="1070" y="440" as="targetPoint" />
          </mxGeometry>
        </mxCell>
        <mxCell id="sw96YTOBPEUKwSquJH4s-258" value="" style="endArrow=none;html=1;rounded=0;" edge="1" parent="1" target="sw96YTOBPEUKwSquJH4s-259">
          <mxGeometry width="50" height="50" relative="1" as="geometry">
            <mxPoint x="390" y="655" as="sourcePoint" />
            <mxPoint x="390" y="383" as="targetPoint" />
          </mxGeometry>
        </mxCell>
        <mxCell id="sw96YTOBPEUKwSquJH4s-259" value="" style="ellipse;whiteSpace=wrap;html=1;aspect=fixed;" vertex="1" parent="1">
          <mxGeometry x="379" y="535" width="20" height="20" as="geometry" />
        </mxCell>
        <mxCell id="sw96YTOBPEUKwSquJH4s-260" value="&lt;font style=&quot;font-size: 14px;&quot;&gt;View Personal Info&lt;/font&gt;" style="rounded=0;whiteSpace=wrap;html=1;" vertex="1" parent="1">
          <mxGeometry x="447" y="410" width="161" height="50" as="geometry" />
        </mxCell>
        <mxCell id="sw96YTOBPEUKwSquJH4s-266" value="" style="endArrow=classic;html=1;rounded=0;" edge="1" parent="1">
          <mxGeometry width="50" height="50" relative="1" as="geometry">
            <mxPoint x="150" y="544.1700000000001" as="sourcePoint" />
            <mxPoint x="230" y="544" as="targetPoint" />
          </mxGeometry>
        </mxCell>
        <mxCell id="sw96YTOBPEUKwSquJH4s-268" value="" style="endArrow=none;html=1;rounded=0;" edge="1" parent="1" target="sw96YTOBPEUKwSquJH4s-87">
          <mxGeometry width="50" height="50" relative="1" as="geometry">
            <mxPoint x="152" y="543" as="sourcePoint" />
            <mxPoint x="151.5" y="163" as="targetPoint" />
            <Array as="points">
              <mxPoint x="151.5" y="233" />
            </Array>
          </mxGeometry>
        </mxCell>
        <mxCell id="sw96YTOBPEUKwSquJH4s-87" value="" style="ellipse;whiteSpace=wrap;html=1;aspect=fixed;" vertex="1" parent="1">
          <mxGeometry x="142" y="360" width="20" height="20" as="geometry" />
        </mxCell>
        <mxCell id="sw96YTOBPEUKwSquJH4s-269" value="End" style="text;html=1;align=center;verticalAlign=middle;resizable=0;points=[];autosize=1;strokeColor=none;fillColor=none;" vertex="1" parent="1">
          <mxGeometry x="1161" y="322" width="40" height="30" as="geometry" />
        </mxCell>
      </root>
    </mxGraphModel>
  </diagram>
</mxfile>
